<svg width="181" height="180" viewBox="0 0 181 180" fill="none" xmlns="http://www.w3.org/2000/svg">
<path fill-rule="evenodd" clip-rule="evenodd" d="M108.009 10.6546C128.509 6.55456 147.636 22.2345 147.636 43.1408V43.6785C147.636 60.01 135.883 73.9719 119.791 76.7571L100.308 80.1291V96.5944L147.636 88.403V107.616L100.308 115.807V136.859C100.308 152.651 89.1611 166.248 73.6756 169.345C53.1753 173.445 34.0489 157.765 34.0489 136.859V136.321C34.0489 119.99 45.8019 106.028 61.8941 103.243L81.3767 99.8709V83.4056L34.0488 91.597V72.3844L81.3767 64.193V43.1408C81.3767 27.3486 92.5235 13.7517 108.009 10.6546ZM100.308 60.9165L116.562 58.1032C123.579 56.8887 128.705 50.8002 128.705 43.6785V43.1408C128.705 34.1809 120.508 27.461 111.722 29.2181C105.085 30.5455 100.308 36.3727 100.308 43.1408V60.9165ZM81.3767 119.084L65.1226 121.897C58.1052 123.111 52.98 129.2 52.98 136.321V136.859C52.98 145.819 61.1771 152.539 69.9629 150.782C76.5996 149.455 81.3767 143.627 81.3767 136.859V119.084Z" fill="white"/>
</svg>
