<svg width="181" height="180" viewBox="0 0 181 180" fill="none" xmlns="http://www.w3.org/2000/svg">
<path fill-rule="evenodd" clip-rule="evenodd" d="M109.414 0.994071C132.41 -3.60515 153.865 13.9838 153.865 37.4353V38.0385C153.865 56.3583 140.681 72.02 122.63 75.1443L100.775 78.9268V97.3967L153.865 88.2081V109.76L100.775 118.948V142.564C100.775 160.279 88.2713 175.531 70.9004 179.005C47.9043 183.604 26.4493 166.015 26.4493 142.564V141.96C26.4493 123.641 39.6332 107.979 57.6845 104.855L79.5391 101.072V82.6023L26.4492 91.7909V70.2392L79.5391 61.0506V37.4353C79.5391 19.7205 92.043 4.46824 109.414 0.994071ZM100.775 57.3751L119.008 54.2194C126.88 52.857 132.629 46.0273 132.629 38.0385V37.4353C132.629 27.3847 123.434 19.8465 113.579 21.8176C106.134 23.3066 100.775 29.8432 100.775 37.4353V57.3751ZM79.5391 122.624L61.3061 125.78C53.4344 127.142 47.6852 133.972 47.6852 141.96V142.564C47.6852 152.614 56.8802 160.152 66.7357 158.181C74.1804 156.692 79.5391 150.156 79.5391 142.564V122.624Z" fill="#202020"/>
</svg>
